<?xml version="1.0" encoding="UTF-8"?>
<!-- Generated by Pixelmator Pro 3.8 -->
<svg width="512" height="509" viewBox="0 0 512 509" xmlns="http://www.w3.org/2000/svg">
    <path id="Path" fill="#d77655" fill-rule="evenodd" stroke="none" d="M 115.612 -0.640015 L 396.386993 -0.640015 C 459.973999 -0.640015 512 51.385986 512 114.971985 L 512 393.387024 C 512 456.973999 459.973999 508.998993 396.386993 508.998993 L 115.612 508.998993 C 52.026001 508.998993 0 456.973999 0 393.387024 L 0 114.971985 C 0 51.385986 52.026001 -0.640015 115.612 -0.640015 Z"/>
    <path id="path1" fill="#fcf2ee" stroke="none" d="M 142.270004 315.979004 L 215.925003 274.653015 L 217.162994 271.064026 L 215.925003 269.067993 L 212.335999 269.067017 L 200.026001 268.307983 L 157.942001 267.169983 L 121.444 265.653992 L 86.083 263.757996 L 77.185997 261.862976 L 68.846001 250.867981 L 69.705002 245.384003 L 77.186996 240.354004 L 87.903999 241.289001 L 111.586998 242.906006 L 147.123993 245.358002 L 172.906006 246.875 L 211.098999 250.842987 L 217.162994 250.842987 L 218.022995 248.391998 L 215.949997 246.875 L 214.332001 245.358002 L 177.556 220.436005 L 137.746002 194.097992 L 116.893997 178.932007 L 105.621002 171.248993 L 99.933998 164.044983 L 97.483002 148.324005 L 107.720001 137.050995 L 121.470001 137.985992 L 124.983002 138.921997 L 138.910995 149.638 L 168.660004 172.664978 L 207.507996 201.277008 L 213.195007 206.003998 L 215.470001 204.386993 L 215.748001 203.248993 L 213.195007 198.977997 L 192.065002 160.785004 L 169.518997 121.937012 L 159.483994 105.835999 L 156.830002 96.181 C 155.895004 92.212982 155.212997 88.876984 155.212997 84.807007 L 166.865005 68.984009 L 173.309998 66.911011 L 188.854996 68.984009 L 195.401993 74.67099 L 205.057007 96.763 L 220.703003 131.542999 L 244.968002 178.833984 L 252.070999 192.862 L 255.862 205.854004 L 257.278015 209.821991 L 259.72699 209.820984 L 259.72699 207.54599 L 261.723999 180.904999 L 265.414001 148.197998 L 269.002991 106.113983 L 270.242004 94.26001 L 276.105011 80.053986 L 287.756989 72.371002 L 296.855988 76.718994 L 304.338013 87.434998 L 303.302002 94.360992 L 298.852997 123.276001 L 290.132996 168.570007 L 284.446014 198.901001 L 287.759003 198.901001 L 291.550995 195.109985 L 306.893005 174.738007 L 332.674988 142.510986 L 344.049011 129.721985 L 357.319 115.592987 L 365.835999 108.868988 L 381.936005 108.868011 L 393.790009 126.484985 L 388.483002 144.68399 L 371.902008 165.712982 L 358.152008 183.531982 L 338.436005 210.071991 L 326.127014 231.302979 L 327.265015 232.996979 L 330.196991 232.718994 L 374.733002 223.23999 L 398.795013 218.893005 L 427.509003 213.964996 L 440.501007 220.031006 L 441.916992 226.197998 L 436.811005 238.811005 L 406.101013 246.393982 L 370.083008 253.598007 L 316.446991 266.286987 L 315.790009 266.767029 L 316.548004 267.702026 L 340.712006 269.97699 L 351.049011 270.53302 L 376.350006 270.53302 L 423.463989 274.046997 L 435.77301 282.185974 L 443.153992 292.14502 L 441.915985 299.728027 L 422.959015 309.382996 L 397.380005 303.317017 L 337.678009 289.112 L 317.20401 284.005981 L 314.373993 284.005005 L 314.373993 285.698975 L 331.434998 302.380981 L 362.700989 330.614014 L 401.852997 367.010986 L 403.850006 376.01001 L 398.820007 383.112 L 393.513 382.354004 L 359.112 356.471008 L 345.84201 344.820007 L 315.789001 319.518005 L 313.792999 319.517029 L 313.792999 322.171021 L 320.718994 332.307007 L 357.292999 387.281982 L 359.187988 404.140991 L 356.535004 409.625977 L 347.056 412.937012 L 336.641998 411.041992 L 315.234009 380.987976 L 293.141998 347.143982 L 275.322998 316.812988 L 273.149994 318.051025 L 262.63501 431.312012 L 257.705994 437.099976 L 246.332001 441.447998 L 236.854004 434.244019 L 231.824005 422.59198 L 236.854004 399.565002 L 242.919998 369.513 L 247.848007 345.627014 L 252.296997 315.953003 L 254.951004 306.094971 L 254.774002 305.437988 L 252.600998 305.716003 L 230.231003 336.426025 L 196.210007 382.403015 L 169.291 411.218018 L 162.845993 413.770996 L 151.673004 407.981995 L 152.710007 397.64502 L 158.953003 388.445007 L 196.210007 341.052979 L 218.679993 311.682007 L 233.188004 294.721008 L 233.087006 292.27002 L 232.227997 292.27002 L 133.274002 356.520996 L 115.655998 358.796021 L 108.072998 351.692993 L 109.009003 340.041016 L 112.598 336.25 L 142.347 315.776001 L 142.246002 315.877991 L 142.270004 315.979004 Z"/>
    <text id="text1" xml:space="preserve" x="171.67334" y="359" font-family="Helvetica" font-size="350" font-weight="700" fill="#d77655">$</text>
    <text id="Text" xml:space="preserve" x="-319.923828" y="-39" font-family="Helvetica" font-size="350" font-weight="700" fill="#d77655">Text</text>
</svg>
